<svg xmlns="http://www.w3.org/2000/svg" viewBox="0 0 128 128" width="128" height="128">
<path d="M0 0v128h62c-2-4.8-.4-11.4-3-15.6-2.2-3.6-6.7-5.9-9.2-9.4-5.8-8-8.5-18.3-9.8-28 16 5.7 29.3 9.1 45 0-4-.4-8.1 2.5-12 3.6-9.2 2.6-26.7 2.2-32-7.6-4.5-8.6 2.8-21.3 9-26.8 2.8-2.5 6.6-4.1 8.6-7.3 2.3-4 1.4-9.6 1.4-13.9 0-3-1.8-16.8 3-16.8 6 0 4 14.2 4 17.8 0 4-.8 9.2 1.3 12.9 3 5.3 10 7.7 13.6 13.1A39 39 0 0 1 87 72c7.2-7.9 12.8 2.1 21 2.6 3.6.2 7.4-3.4 10-.6 1.3-.6 1-.1 1-2a30 30 0 0 1-.5 9c-.4 1.5-2 2.4-2.3 4-.3 1.8 1.6 3.1 1.1 4.8-.6 2.2-2.3 1-3.3.2a62 62 0 0 1-45 37c2.5-4.6 7.4-4.5 12-6.2 5-2 9.4-5 14-7.8q-.3-3 0-6c-4.5-.1-7.2 3-11 5.1a37 37 0 0 1-15 4.9v-3c6.2-.5 11.7-3 17-6l-2-3q-4.5.4-9 0c-2.1 2.8-6 5-7.4 8.2-2 5 .7 9.6-3.6 13.8 5.7 2.4 13.8 1 20 1h44V0z" fill="#fff"/>
<path d="M63 8c0 9.8 1.3 20.5-1 30 2.4-2.1 2-4.9 2-8 0-6.7 1.6-15.8-1-22" fill="#fff"/>
<path d="M58 42.6A22 22 0 0 0 43.3 62c-.4 3-.8 7 1.3 9.4 5.9 7 20.6 6.6 28.4 4.4 3.3-.8 8-2.1 10-5.2 1.8-3 .5-7.4-.1-10.6A20.2 20.2 0 0 0 58 42.6" fill="#fff"/>
<path d="M85 73c4.4 9.7-4.4 23.7-9 32l1 1c6.6-6 15-14 17-23l3 1q-2.9 7.3-8 13c-3 3-6.8 5.3-9 9l4-1c2.6 2.8 5.6.2 8-2 4.8-4.6 7.2-12 13-15-3.3 7.9-12.5 15-10 24 9.6-6.8 11.6-18.7 20-26q-.3 3 0 6l3-1c-1.1-6.5 1-12.5 2-19-3.8 2.8-8 6.1-13 5.6-8.7-1-12.6-9.1-22-4.6" fill="#fff"/>
<path d="M44 80c.9 10.2 8.7 33.6 23 28.3 10.6-4 14-18.5 16-28.3-4.3 1.2-8.5 3-13 3.7-9.4 1.4-17.2-1.3-26-3.7" fill="#fff"/>
<path d="M71 53q-1.9 2.8-3 6h3l-1 4q2.9-2.6 5-6h-4c.3-1.8.4-2.3 0-4" fill="#020202"/>
<path d="M61 6v19c0 3.7.4 7.7-1.4 11-2.4 4-7.2 5.9-10.6 9-6 5.8-8.7 14.6-8 22.9a11 11 0 0 0 9 9c8 3 17.9 3 26 .3a13 13 0 0 0 9.7-7.3c2.1-8.1-2-19.3-7.8-24.8-3.4-3.3-8-5-10.5-9.2-1.8-3.4-1.4-7.3-1.4-11V6z M10 68c3.1-6.5 3-14.3 5.9-21A60 60 0 0 1 57 13a26 26 0 0 0-20 5.5A58 58 0 0 0 10 68m60-56c5.5 4 13 4.9 19 8.7 16.4 10.6 26 29 26 48.3 3.5-5.4.2-16.4-2-22a52 52 0 0 0-43-35 M70 21c3.5 5 12.9 6.6 18 10.5A49 49 0 0 1 106 71h2c0-25-14.1-43.2-38-50 M19 72c2.7-6.1 2.4-13.6 4.7-20A47 47 0 0 1 57 23a20 20 0 0 0-17 4.7A50 50 0 0 0 19 72 M28 67c4-8 4.7-16 11-23 2.7-2.9 5.6-5.7 9-7.6 3.2-1.9 6.8-2.4 9-5.4a36 36 0 0 0-29 36m42-36a5 5 0 0 0 4 2c-1.5-1-2.2-1.4-4-2 M77 33c1.8 2.4 4.6 3.2 6.9 5.3 3 2.6 4.2 6 5.1 9.7 3-8-5.3-13.4-12-15 M76 39c3.6 2.7 6.1 4.8 8 9 2-5.6-3-8.5-8-9 M46 65c2.6-2.3 2.4-6 4-9 2.2-3.8 5.9-6.3 8-10a21 21 0 0 0-12 19 M93 48c.7 6.4 3.8 12.6 5 19a22 22 0 0 0-5-19 m56 63-4-1q1.3 2.8 2 6a8 8 0 0 0 2-4 9 9 0 0 0 11-3 16 16 0 0 1-5-4c1.7.1 2.4.3 4 1l1-3c-6 .1-9.7 1.8-11 8 M10 72c4.2 12.3 20.7-1.3 28-2-6.7-2.8-11 3-17 4.7-4 1-7.5-1-11-2.7 M89 69c7.5 3.7 22.2 14.1 28 3-2.8 1.4-5.8 3.4-9 3.3-6.8-.3-11.7-6.1-19-6.3 M41 75a55 55 0 0 0 9.8 29c2.6 3.4 7 5.5 9.2 9.2 1.2 2.2-.2 13.7 3.8 12.9 3.7-.8 1.7-10.3 3.2-13 2.4-4.3 7.7-6.8 10.5-11.1 5.4-8.3 6.7-17.5 8.5-27-16 8.5-29 8.5-45 0 M11 80c6.5 11.5 18.6-.5 27-2-6-2.4-9.7 2.6-15 4.3-4.3 1.4-8.1-.7-12-2.3 M89 77c7 4.5 21 13.4 27 3-3.2 1.3-6.4 3-10 2.7-6.1-.6-10.6-5.4-17-5.7 M31 84a28 28 0 0 0 15 19c-1.9-3.7-5-5.9-7.7-9-2.7-3.2-4.4-7-7.3-10 M95 84c-4 6.6-10.7 12.2-14 19 5.7-3.3 16-11.4 14-19 M48 85c.7 4.2 2.5 8 4 12 1-3.8-.8-9.6-4-12 M113 87c-6.4 11-11.3 21-22 28.6a51 51 0 0 1-12 6.3c-3.3 1.2-6.8 1.3-9 4.1 15.2-2 29-11 37.5-24 2.6-4 6.5-10.1 5.5-15 M13 88a52 52 0 0 0 44 38v-2a51 51 0 0 1-34.1-21c-3.4-4.5-5.4-11.7-9.9-15 M23 88a38 38 0 0 0 34 28c-5.2-3.7-11.8-4.5-17-8.5C32.8 101.9 29.2 94 23 88 M102 88a43 43 0 0 1-18 21.2c-4.4 2.6-11.2 3.4-14 7.8a45 45 0 0 0 34-29z" fill="#000"/>
</svg>